<svg xmlns="http://www.w3.org/2000/svg" width="96" height="96" viewBox="0 0 96 96" fill="none">

<defs>
  <filter id="glow" x="-40%" y="-40%" width="180%" height="180%">
    <feGaussianBlur stdDeviation="3" result="blur"/>
    <feMerge><feMergeNode in="blur"/><feMergeNode in="SourceGraphic"/></feMerge>
  </filter>
  <linearGradient id="ring" x1="0" y1="0" x2="96" y2="96" gradientUnits="userSpaceOnUse">
    <stop offset="0" stop-color="#B966FF"/>
    <stop offset="1" stop-color="#5B2A7D"/>
  </linearGradient>
  <linearGradient id="gold" x1="20" y1="8" x2="76" y2="88" gradientUnits="userSpaceOnUse">
    <stop offset="0" stop-color="#F8DCA0"/>
    <stop offset="0.55" stop-color="#D89B4C"/>
    <stop offset="1" stop-color="#80572A"/>
  </linearGradient>
</defs>

<circle cx="48" cy="48" r="38" fill="#171429" fill-opacity="0.82" stroke="url(#ring)" stroke-width="4"/>
        <circle cx="48" cy="48" r="39.5" fill="none" stroke="#C879FF" stroke-opacity="0.28" stroke-width="1"/>

<circle cx="48" cy="48" r="10" stroke="url(#gold)" stroke-width="4.2" stroke-linecap="round" stroke-linejoin="round"/>
<path d="M48 18v8M48 70v8M22 48h8M70 48h8M29.5 29.5l5.6 5.6M60.9 60.9l5.6 5.6M66.5 29.5l-5.6 5.6M35.1 60.9l-5.6 5.6" stroke="url(#gold)" stroke-width="4.2" stroke-linecap="round" stroke-linejoin="round"/>
<path d="M48 28c4.8 0 6-4.8 9.3-3.3l5.4 3.1c3.2 1.8-.8 5.5 1.5 9.8 2.4 4.1 7.9 2.4 8.2 6.2v6.4c-.3 3.8-5.8 2.1-8.2 6.2-2.3 4.3 1.7 8-1.5 9.8l-5.4 3.1c-3.3 1.5-4.5-3.3-9.3-3.3s-6 4.8-9.3 3.3l-5.4-3.1c-3.2-1.8.8-5.5-1.5-9.8-2.4-4.1-7.9-2.4-8.2-6.2v-6.4c.3-3.8 5.8-2.1 8.2-6.2 2.3-4.3-1.7-8 1.5-9.8l5.4-3.1c3.3-1.5 4.5 3.3 9.3 3.3z" stroke="url(#gold)" stroke-width="2.8" stroke-linejoin="round" opacity="0.88"/>

</svg>